<?xml version="1.0" encoding="utf-8"?>
<!-- Generator: Adobe Illustrator 16.0.0, SVG Export Plug-In . SVG Version: 6.00 Build 0)  -->
<!DOCTYPE svg PUBLIC "-//W3C//DTD SVG 1.1//EN" "http://www.w3.org/Graphics/SVG/1.1/DTD/svg11.dtd">
<svg version="1.1" id="Capa_1" xmlns="http://www.w3.org/2000/svg" xmlns:xlink="http://www.w3.org/1999/xlink" x="0px" y="0px"
	 width="532px" height="519.264px" viewBox="0 0 532 519.264" enable-background="new 0 0 532 519.264" xml:space="preserve">
<g>
	<g>
		<defs>
			<rect id="SVGID_1_" x="0.354" width="531.646" height="519.264"/>
		</defs>
		<clipPath id="SVGID_2_">
			<use xlink:href="#SVGID_1_"  overflow="visible"/>
		</clipPath>
		<g clip-path="url(#SVGID_2_)">
			<path fill="#EDEDED" d="M322.332,299.689c0,10.862-1.941,21.276-5.479,30.925c-0.507,1.377-1.042,2.726-1.616,4.064
				c-0.268,0.688-0.563,1.357-0.879,2.027c-0.756,1.654-1.55,3.289-2.391,4.896c-1.712,3.203-3.596,6.282-5.633,9.266
				c-1.042,1.482-2.113,2.927-3.223,4.352c-0.439,0.583-0.898,1.147-1.357,1.712c-0.938,1.108-1.865,2.18-2.841,3.241
				c-0.946,1.071-1.94,2.113-2.974,3.137c-1.53,1.53-3.117,2.993-4.733,4.418c-4.896,4.245-10.27,7.975-16.008,11.111
				c-0.019,0-0.019,0-0.019,0c-1.272,0.688-2.572,1.358-3.873,1.989c-2.62,1.271-5.316,2.409-8.062,3.414
				c-9.648,3.538-20.062,5.479-30.905,5.479h-0.02c-31.967,0-61.993,12.451-84.59,35.027c-22.596,22.598-35.027,52.643-35.027,84.6
				c0,49.631-40.401,90.012-90.031,90.031c-49.629-0.02-90.03-40.42-90.04-90.039c0.02-49.65,40.401-90.031,90.031-90.031
				c31.948,0,61.993-12.451,84.59-35.028c22.434-22.434,34.874-52.221,35.046-83.931c-0.019-0.21-0.019-0.439-0.019-0.649
				c0.019-31.948-12.432-61.994-35.027-84.59c-22.597-22.596-52.642-35.027-84.59-35.027v-0.019
				c-49.63,0-90.012-40.383-90.031-90.012c0.02-49.648,40.421-90.031,90.04-90.041c49.63,0.02,90.031,40.402,90.031,90.012
				c0,31.967,12.432,62.013,35.027,84.599c22.597,22.596,52.623,35.027,84.571,35.027c2.323,0,4.647,0.086,6.942,0.268
				c2.275,0.172,4.522,0.44,6.741,0.774c0.756,0.125,1.511,0.249,2.257,0.373c1.281,0.229,2.572,0.497,3.835,0.774
				c2.533,0.583,5.039,1.272,7.506,2.046c1.215,0.392,2.429,0.813,3.644,1.253c0,0.019,0,0.019,0.019,0
				c8.616,3.175,16.61,7.621,23.772,13.101c2.678,2.075,5.23,4.265,7.66,6.607c4.054,3.892,7.745,8.176,11.025,12.766
				c0.832,1.176,1.635,2.381,2.429,3.615c0.774,1.214,1.53,2.448,2.257,3.701c0.354,0.631,0.727,1.272,1.071,1.922
				c0.688,1.272,1.338,2.553,1.988,3.854c0.612,1.319,1.233,2.658,1.798,3.997c0.584,1.338,1.109,2.696,1.616,4.064
				C320.391,278.393,322.332,288.816,322.332,299.689z"/>
			<g>
				<path fill="#EDEDED" d="M532.009,299.689c-0.019,49.648-40.401,90.03-90.03,90.03c-31.968,0-62.014,12.451-84.6,35.027
					c-22.597,22.598-35.027,52.643-35.027,84.6c0,49.631-40.383,90.012-90.031,90.031c-49.629-0.02-90.03-40.42-90.04-90.039
					c0.019-49.65,40.401-90.031,90.03-90.031c31.968,0,62.013-12.451,84.6-35.028c22.577-22.597,35.027-52.642,35.027-84.6
					c0-49.629,40.383-90.012,90.012-90.031C491.588,209.658,531.99,250.059,532.009,299.689z"/>
			</g>
			<ellipse fill="#EDEDED" cx="232.032" cy="89.767" rx="89.762" ry="89.762"/>
		</g>
	</g>
</g>
</svg>
