<?xml version="1.0" encoding="UTF-8"?>
<svg xmlns="http://www.w3.org/2000/svg" xmlns:xlink="http://www.w3.org/1999/xlink" width="75pt" height="75pt" viewBox="0 0 75 75" version="1.1">
<g id="surface1">
<path style=" stroke:none;fill-rule:nonzero;fill:rgb(0%,0%,0%);fill-opacity:1;" d="M 37.523438 19.71875 L 10.757812 41.785156 C 10.757812 41.816406 10.75 41.859375 10.734375 41.921875 C 10.71875 41.984375 10.710938 42.03125 10.710938 42.0625 L 10.710938 64.40625 C 10.710938 65.210938 11.007812 65.910156 11.597656 66.5 C 12.1875 67.089844 12.882812 67.386719 13.691406 67.386719 L 31.566406 67.386719 L 31.566406 49.511719 L 43.484375 49.511719 L 43.484375 67.386719 L 61.359375 67.386719 C 62.164062 67.386719 62.863281 67.089844 63.453125 66.5 C 64.042969 65.914062 64.339844 65.210938 64.339844 64.40625 L 64.339844 42.0625 C 64.339844 41.9375 64.320312 41.84375 64.289062 41.785156 Z M 37.523438 19.71875 "/>
<path style=" stroke:none;fill-rule:nonzero;fill:rgb(0%,0%,0%);fill-opacity:1;" d="M 74.53125 36.757812 L 64.335938 28.285156 L 64.335938 9.292969 C 64.335938 8.859375 64.199219 8.5 63.917969 8.222656 C 63.640625 7.941406 63.28125 7.800781 62.847656 7.800781 L 53.910156 7.800781 C 53.476562 7.800781 53.117188 7.941406 52.839844 8.222656 C 52.558594 8.5 52.421875 8.859375 52.421875 9.292969 L 52.421875 18.367188 L 41.0625 8.871094 C 40.070312 8.066406 38.890625 7.660156 37.523438 7.660156 C 36.160156 7.660156 34.980469 8.066406 33.988281 8.871094 L 0.515625 36.757812 C 0.207031 37.003906 0.0351562 37.335938 0.00390625 37.757812 C -0.0273438 38.175781 0.0820312 38.542969 0.332031 38.851562 L 3.21875 42.296875 C 3.464844 42.574219 3.789062 42.746094 4.195312 42.808594 C 4.566406 42.839844 4.941406 42.730469 5.3125 42.484375 L 37.523438 15.621094 L 69.738281 42.480469 C 69.984375 42.699219 70.3125 42.808594 70.714844 42.808594 L 70.855469 42.808594 C 71.257812 42.746094 71.582031 42.574219 71.832031 42.296875 L 74.71875 38.851562 C 74.964844 38.539062 75.074219 38.175781 75.042969 37.757812 C 75.011719 37.339844 74.839844 37.003906 74.53125 36.757812 Z M 74.53125 36.757812 "/>
</g>
</svg>
