<?xml version="1.0" encoding="utf-8"?>
<!-- Generator: Adobe Illustrator 16.0.0, SVG Export Plug-In . SVG Version: 6.00 Build 0)  -->
<!DOCTYPE svg PUBLIC "-//W3C//DTD SVG 1.1//EN" "http://www.w3.org/Graphics/SVG/1.1/DTD/svg11.dtd">
<svg version="1.1" id="Capa_1" xmlns="http://www.w3.org/2000/svg" xmlns:xlink="http://www.w3.org/1999/xlink" x="0px" y="0px"
	 width="320.5px" height="157px" viewBox="0 11.5 320.5 157" enable-background="new 0 11.5 320.5 157" xml:space="preserve">
<g>
	<g>
		<g>
			
				<radialGradient id="SVGID_1_" cx="-344.6643" cy="4197.9912" r="34.1421" gradientTransform="matrix(1.0996 0 0 -0.1681 654.5488 807.1353)" gradientUnits="userSpaceOnUse">
				<stop  offset="0" style="stop-color:#716F74"/>
				<stop  offset="1" style="stop-color:#9A9AA0;stop-opacity:0"/>
			</radialGradient>
			<ellipse fill="url(#SVGID_1_)" cx="275.56" cy="101.352" rx="37.532" ry="5.632"/>
			<g>
				<path d="M37.453,144.661L20.7,126.09v33.497h-6.723v-45.126h6.053l18.159,21.468l18.063-21.468h6.024v45.126h-6.723v-33.564
					l-16.629,18.638H37.453L37.453,144.661z"/>
				<path d="M69.364,118.641c0-2.391,1.597-4.055,3.911-4.055c2.305,0,3.939,1.664,3.939,4.055s-1.635,4.054-3.939,4.054
					C70.96,122.695,69.364,121.032,69.364,118.641z M70.1,159.578v-31.9h6.34v31.9H70.1z"/>
				<path d="M90.554,159.578h-6.34v-45.125h6.34V159.578z"/>
				<path d="M125.916,157.121c-3.558,2.094-7.43,3.127-11.724,3.127c-10.347,0-17.49-6.78-17.49-16.61
					c0-9.505,6.627-16.61,15.826-16.61c9.993,0,16.429,8.635,14.603,19.011h-23.926c1.119,5.221,5.03,8.108,10.987,8.108
					c3.586,0,6.665-0.966,10.758-2.993L125.916,157.121z M121.393,140.768c-0.411-4.618-3.614-7.745-8.683-7.745
					c-5.059,0-8.836,3.127-9.323,7.745H121.393z"/>
				<path d="M162.33,140.204v19.374h-6.34V141.6c0-5.288-2.783-8.338-7.555-8.338c-4.676,0-8.491,3.06-8.491,8.338v17.978h-6.34
					v-31.9h6.368v4.017c1.023-1.626,3.94-4.686,9.448-4.686C157.874,127.017,162.33,132.468,162.33,140.204z"/>
				<path d="M169.464,118.641c0-2.391,1.597-4.055,3.91-4.055c2.305,0,3.94,1.664,3.94,4.055s-1.636,4.054-3.94,4.054
					C171.071,122.695,169.464,121.032,169.464,118.641z M170.2,159.578v-31.9h6.34v31.9H170.2z"/>
				<path d="M198.992,127.017c9.353,0,16.333,7.277,16.333,16.61s-6.98,16.61-16.333,16.61c-9.352,0-16.332-7.277-16.332-16.61
					S189.641,127.017,198.992,127.017z M198.992,154.06c5.795,0,9.993-4.552,9.993-10.433s-4.198-10.433-9.993-10.433
					S189,137.747,189,143.627S193.198,154.06,198.992,154.06z"/>
				<path d="M244.903,145.75v13.827h-6.723v-45.125h17.958c8.167,0,15.186,4.953,15.186,15.749c0,9.734-7.019,15.549-15.186,15.549
					H244.903z M244.903,120.802v18.675h9.982c5.193,0,9.42-3.49,9.42-9.208c0-6.312-4.227-9.467-9.42-9.467H244.903z"/>
				<path d="M312.863,157.254c-2.371,1.1-6.368,2.954-13.999,2.954c-14.793,0-24.92-9.438-24.92-23.227
					c0-13.761,10.06-23.199,24.824-23.199c5.833,0,11.083,1.626,13.55,2.859l-0.669,6.579c-2.333-1.167-7.076-2.792-12.871-2.792
					c-10.471,0-17.586,6.713-17.586,16.553c0,9.868,7.497,16.647,18.418,16.647c5.154,0,9.734-1.491,12.297-2.992L312.863,157.254z"
					/>
			</g>
			<g>
				
					<radialGradient id="SVGID_2_" cx="-492.8943" cy="799.4346" r="74.1159" gradientTransform="matrix(1.046911e-013 1.0177 0.916 -9.422201e-014 -456.646 518.3673)" gradientUnits="userSpaceOnUse">
					<stop  offset="0" style="stop-color:#D50C1F"/>
					<stop  offset="0.5" style="stop-color:#D50C1F"/>
					<stop  offset="0.5717" style="stop-color:#D20D1F"/>
					<stop  offset="0.6468" style="stop-color:#C70F1F"/>
					<stop  offset="0.7233" style="stop-color:#B6121F"/>
					<stop  offset="0.8009" style="stop-color:#9E131D"/>
					<stop  offset="0.8793" style="stop-color:#801219"/>
					<stop  offset="0.9573" style="stop-color:#5E0E12"/>
					<stop  offset="1" style="stop-color:#49080B"/>
				</radialGradient>
				<path fill="url(#SVGID_2_)" d="M275.712,17.135c-20.654,0-37.398,16.734-37.398,37.389c0,7.344,2.113,14.191,5.775,19.967
					c1.482-1.281,3.424-2.486,3.672-4.399c0.469-3.567,1.702-12.699,1.626-12.948l0.287-2.189l1.884-7.841
					c0.086-1.817-0.852-2.697-0.622-4.456c0.058-0.498,0.373-1.109,0.546-1.482c0.966-1.233,1.893-0.593,3.031-0.057
					c0.411,0.191,0.697,0.966,0.603,1.769c0.315,0.172,0.487,0.258,0.803,0.382c0.038-0.191,0.153-0.191,0.172-0.382
					c0.058-0.469-0.21-0.736-0.144-1.205c0.058-0.44,0.325-0.65,0.555-0.545c0.593,0.277,0.822,1.081,1.416,1.367
					c0.296,0.144,0.459,0.019,0.745-0.105c0.02,0.421,0.086,0.736,0.029,1.176c-0.153,1.176,0.066,2.41-0.259,3.461
					c-0.88,2.783-1.281,4.179-1.692,7.334c-0.306,2.333-0.832,3.997-1.138,6.331c-0.21,1.673-0.469,2.189-0.688,3.863
					c-0.124,0.956-0.555,0.908-0.679,1.874c3.107-3.184,5.67-7.497,8.778-10.691c0.793-0.784,0.841-2.075,1.529-3.194
					c1.167-1.903,1.837-3.05,2.897-5.154c0.718-1.453,1.894-4.867,1.951-5.565c0.249-3.012,0.66-5.489,2.142-6.684
					c0.603-0.478,0.861-1.683,1.512-1.482l1.74,0.526c0.325,1.186,0.88,0.564,1.559,1.014c0.478,0.354,0.545,2.735,0.459,3.71
					c-0.134,1.559-1.396,8.186-1.645,11.141l-1.559,8.539l0.229,0.182c1.062-0.622,1.406-1.893,2.391-2.716
					c3.567-2.983,4.514-7.813,7.774-11.781c2.161-2.611,3.815-3.729,5.011-8.1c0.555-2.084,0.277-3.834,0.966-5.766
					c0.45-1.291,1.578-0.899,1.712-2.458c0.01-0.125,0-0.22-0.019-0.315c0.765-0.163,1.186-1.272,2.008-1.023l1.367,0.411
					c0.526,0.153,0.325,1.492,0.603,2.353c0.239,0.736,0.315,1.243,0.622,1.913c0.104,0.22,0.248,0.363,0.382,0.497
					c-0.698,0.44-2.524,10.739-2.524,12.097c0,3.356-1.405,4.628-1.405,7.994c0,1.186,0.516,2.84,0.516,2.84
					c0.498-2.438,0.02-2.391,0.02-4.15c0-0.966,1.578-7.028,2.151-11.006c0.469-3.204,1.129-6.082,1.272-7.746
					c0.22,0.201,0.401,0.392,0.372,0.86c-0.258,3.031-3.375,18.819-3.48,20.139c-0.096,1.138-0.354,1.721-0.439,2.869l-0.229,1.655
					c2.361,0.363,4.245-0.842,6.11-3.701c0.612-0.937,1.243-0.401,1.902-1.147c1.358-1.54,1.837-2.629,3.242-4.093
					c1.941-2.065,4.303-5.221,6.234-7.965C304.773,26.754,291.366,17.135,275.712,17.135z M250.229,34.338h-0.794
					c-0.038-0.517-0.058-0.803-0.058-1.31c0-1.157,0.736-1.664,1.339-1.501c0,0.669,0.201,0.985,0.201,1.664
					C250.917,33.869,250.582,34.338,250.229,34.338z M254.417,38.555c-0.688-0.163-1.301-1.473-1.081-2.687
					c0.144-0.803,0.631-0.774,1.081-0.899c0.468,0.325,1.07,0.45,1.07,1.406C255.488,37.532,255.02,38.555,254.417,38.555z"/>
				
					<radialGradient id="SVGID_3_" cx="-492.8938" cy="799.4355" r="74.1153" gradientTransform="matrix(1.046911e-013 1.0177 0.916 -9.422201e-014 -456.646 518.3673)" gradientUnits="userSpaceOnUse">
					<stop  offset="0" style="stop-color:#D50C1F"/>
					<stop  offset="0.5" style="stop-color:#D50C1F"/>
					<stop  offset="0.5717" style="stop-color:#D20D1F"/>
					<stop  offset="0.6468" style="stop-color:#C70F1F"/>
					<stop  offset="0.7233" style="stop-color:#B6121F"/>
					<stop  offset="0.8009" style="stop-color:#9E131D"/>
					<stop  offset="0.8793" style="stop-color:#801219"/>
					<stop  offset="0.9573" style="stop-color:#5E0E12"/>
					<stop  offset="1" style="stop-color:#49080B"/>
				</radialGradient>
				<path fill="url(#SVGID_3_)" d="M311.046,42.284c-3.271,6.206-7.383,13.215-8.224,15.291c0,0,3.279-4.456,2.391-2.094
					c-0.918,2.496-1.884,3.175-3.223,4.8c-3.624,4.399-5.374,8.53-9.553,10.624c-0.268,0.124-0.345,0.555-0.507,0.985
					c-0.421,1.138-1.119,0.574-1.846,0.478c-0.842-0.134-1.319,0.182-2.151-0.077l-1.616-0.487
					c-1.511-0.459-2.343-2.563-2.697-5.384c-0.363-3.003,0.277-4.772,0.536-7.822c0.248-3.041-0.105-5.632-0.67-4.236
					c-0.382,0.918-0.755,1.262-1.147,2.181c-1.004,2.333-6.33,12.651-7.879,14.439c-1.999,2.314-3.271,4.609-5.547,3.93
					c-0.573-0.172-0.631-1.3-1.1-1.922c-1.453-1.951-2.218-4.475-1.94-7.793c0.114-1.425,1.09-5.106,1.204-6.483
					c0.096-1.147-0.363-1.702-0.984-0.545c-0.909,1.702-1.874,1.979-2.506,4.16c-0.363,1.272-0.258,2.391-0.765,3.433
					c-0.88,1.816-2.237,1.386-2.726,3.748c-0.89,4.313-4.159,6.35-6.12,8.913c-0.956,1.262-1.645,1.606-2.668,2.658
					c-0.325,0.335-0.593,0.774-0.889,0.976c6.655,6.12,15.539,9.849,25.293,9.849c20.645,0,37.389-16.744,37.389-37.399
					C313.102,50.24,312.375,46.119,311.046,42.284z M282.78,60.682h-0.794c-0.028-0.507-0.058-0.803-0.058-1.31
					c0-1.147,0.736-1.664,1.349-1.501c0,0.669,0.201,0.995,0.201,1.664C283.468,60.204,283.133,60.682,282.78,60.682z"/>
			</g>
		</g>
	</g>
</g>
</svg>
