<?xml version="1.0" encoding="utf-8"?>
<!-- Generator: Adobe Illustrator 16.0.0, SVG Export Plug-In . SVG Version: 6.00 Build 0)  -->
<!DOCTYPE svg PUBLIC "-//W3C//DTD SVG 1.1//EN" "http://www.w3.org/Graphics/SVG/1.1/DTD/svg11.dtd">
<svg version="1.1" id="Capa_1" xmlns="http://www.w3.org/2000/svg" xmlns:xlink="http://www.w3.org/1999/xlink" x="0px" y="0px"
	 width="574.333px" height="169.334px" viewBox="17.834 311.5 574.333 169.334"
	 enable-background="new 17.834 311.5 574.333 169.334" xml:space="preserve">
<g>
	<g>
		<path fill="#6F6F6E" d="M196.031,422.105h10.327c9.371,0,15.778,6.407,15.778,14.727v0.096c0,8.319-6.407,14.821-15.778,14.821
			h-10.327V422.105z M206.359,448.689c7.459,0,12.336-5.068,12.336-11.666v-0.096c0-6.599-4.781-11.762-12.336-11.762h-6.98v23.523
			H206.359z"/>
		<path fill="#6F6F6E" d="M229.117,422.105h21.42v3.061h-18.073v10.136h16.161v3.061h-16.161v10.423h18.265v3.06h-21.707v-29.739
			H229.117z"/>
		<path fill="#6F6F6E" d="M268.419,429.469v-0.096c0-13.005,10.041-23.332,23.619-23.332c9.181,0,15.014,3.824,19.029,9.371
			l-9.371,7.268c-2.582-3.156-5.546-5.26-9.753-5.26c-6.312,0-10.711,5.355-10.711,11.857v0.096c0,6.693,4.399,11.953,10.711,11.953
			c4.686,0,7.458-2.199,10.136-5.45l9.371,6.693c-4.208,5.833-9.945,10.137-19.794,10.137
			C278.747,452.61,268.419,442.856,268.419,429.469z"/>
		<path fill="#6F6F6E" d="M316.423,406.997h12.431v33.946h21.707v10.901h-34.138V406.997z"/>
		<path fill="#6F6F6E" d="M355.151,406.997h12.432v44.752h-12.432V406.997z"/>
		<path fill="#6F6F6E" d="M376.189,406.997h35.955v10.519h-23.715v6.789h21.516v9.754h-21.516v7.076h24.097v10.519h-36.337V406.997
			L376.189,406.997z"/>
		<path fill="#6F6F6E" d="M419.793,406.997h11.571l18.455,23.715v-23.715h12.24v44.752h-10.901l-19.125-24.575v24.575h-12.24
			V406.997z"/>
		<path fill="#6F6F6E" d="M480.133,417.803H466.65v-10.901h39.302v10.901h-13.482v33.946h-12.432v-33.946H480.133z"/>
		<path fill="#6F6F6E" d="M510.446,406.997h36.051v10.519h-23.715v6.789h21.516v9.754h-21.516v7.076h24.098v10.519h-36.338v-44.656
			H510.446z"/>
		<path fill="#6F6F6E" d="M550.417,445.056l6.885-8.224c4.399,3.538,9.371,5.354,14.535,5.354c3.347,0,5.164-1.147,5.164-3.06
			v-0.096c0-1.816-1.435-2.869-7.555-4.303c-9.563-2.2-16.926-4.877-16.926-14.057v-0.096c0-8.32,6.599-14.344,17.309-14.344
			c7.649,0,13.578,2.008,18.455,5.928l-6.216,8.798c-4.111-2.868-8.605-4.398-12.526-4.398c-2.964,0-4.494,1.243-4.494,2.868v0.096
			c0,2.009,1.529,2.965,7.745,4.304c10.328,2.199,16.734,5.546,16.734,13.961v0.096c0,9.18-7.268,14.631-18.073,14.631
			C563.422,452.515,555.867,450.028,550.417,445.056z"/>
	</g>
	<path fill="#B90E67" d="M104.996,335.469c6.12,0,10.997-4.972,10.997-10.997c0-6.12-4.973-10.997-10.997-10.997
		c-6.12,0-10.997,4.973-10.997,10.997C93.999,330.593,98.972,335.469,104.996,335.469z M104.996,319.022
		c3.06,0,5.546,2.486,5.546,5.546c0,3.06-2.486,5.546-5.546,5.546c-3.061,0-5.546-2.486-5.546-5.546
		C99.545,321.508,102.031,319.022,104.996,319.022z"/>
	<path fill="#B90E67" d="M44.561,396c0-6.12-4.972-10.997-10.996-10.997S22.568,389.976,22.568,396
		c0,6.12,4.973,10.997,10.997,10.997S44.561,402.12,44.561,396z M33.565,401.547c-3.061,0-5.547-2.486-5.547-5.547
		c0-3.06,2.486-5.546,5.547-5.546c3.06,0,5.546,2.486,5.546,5.546C39.111,399.061,36.529,401.547,33.565,401.547z"/>
	<path fill="#B90E67" d="M104.996,456.53c-6.12,0-10.997,4.973-10.997,10.997c0,6.12,4.973,10.997,10.997,10.997
		c6.12,0,10.997-4.973,10.997-10.997C115.993,461.407,111.116,456.53,104.996,456.53z M104.996,472.979
		c-3.061,0-5.546-2.486-5.546-5.547c0-3.06,2.485-5.546,5.546-5.546c3.06,0,5.546,2.486,5.546,5.546
		C110.542,470.492,108.056,472.979,104.996,472.979z"/>
	<path fill="#B90E67" d="M118.67,330.497l2.104-5.068l4.59,1.913l-2.104,5.068L118.67,330.497z"/>
	<path fill="#B90E67" d="M136.935,338.243l2.104-5.068l4.591,1.913l-2.104,5.068L136.935,338.243z"/>
	<path fill="#B90E67" d="M127.755,334.417l2.104-5.068l4.59,1.912l-2.104,5.068L127.755,334.417z"/>
	<path fill="#B90E67" d="M164.762,423.54l1.912-4.59l5.068,2.104l-1.912,4.59L164.762,423.54z"/>
	<path fill="#B90E67" d="M160.937,432.72l1.913-4.59l5.067,2.104l-1.912,4.591L160.937,432.72z"/>
	<path fill="#B90E67" d="M168.587,414.359l1.912-4.59l5.068,2.104l-1.913,4.59L168.587,414.359z"/>
	<path fill="#B90E67" d="M66.268,457.009l2.104-5.068l4.59,1.913l-2.104,5.067L66.268,457.009z"/>
	<path fill="#B90E67" d="M75.353,460.738l2.104-5.068l4.59,1.913l-2.104,5.067L75.353,460.738z"/>
	<path fill="#B90E67" d="M84.532,464.659l2.104-5.068l4.59,1.912l-2.104,5.068L84.532,464.659z"/>
	<path fill="#B90E67" d="M38.25,371.042l1.912-4.59l5.068,2.104l-1.912,4.59L38.25,371.042z"/>
	<path fill="#B90E67" d="M42.17,361.862l1.913-4.59l5.068,2.104l-1.913,4.59L42.17,361.862z"/>
	<path fill="#B90E67" d="M34.425,380.222l1.912-4.59l5.068,2.104l-1.912,4.59L34.425,380.222z"/>
	<path fill="#B90E67" d="M42.075,430.043l5.067-2.104l1.913,4.59l-5.068,2.104L42.075,430.043z"/>
	<path fill="#B90E67" d="M34.425,411.778l5.068-2.104l1.912,4.59l-5.068,2.104L34.425,411.778z"/>
	<path fill="#B90E67" d="M38.346,420.862l5.067-2.104l1.913,4.59l-5.068,2.104L38.346,420.862z"/>
	<path fill="#B90E67" d="M137.031,453.662l4.59-1.913l2.104,5.068l-4.591,1.912L137.031,453.662z"/>
	<path fill="#B90E67" d="M118.67,461.407l4.591-1.912l2.104,5.068l-4.59,1.912L118.67,461.407z"/>
	<path fill="#B90E67" d="M127.851,457.582l4.59-1.912l2.104,5.068l-4.59,1.912L127.851,457.582z"/>
	<path fill="#B90E67" d="M66.268,335.087l4.59-1.913l2.104,5.068l-4.59,1.912L66.268,335.087z"/>
	<path fill="#B90E67" d="M84.628,327.341l4.59-1.913l2.104,5.068l-4.59,1.912L84.628,327.341z"/>
	<path fill="#B90E67" d="M75.448,331.166l4.59-1.912l2.104,5.068l-4.59,1.913L75.448,331.166z"/>
	<path fill="#B90E67" d="M52.785,354.786c6.119,0,10.996-4.973,10.996-10.997c0-6.12-4.972-10.997-10.996-10.997
		s-10.997,4.973-10.997,10.997C41.788,349.813,46.665,354.786,52.785,354.786z M52.785,338.243c3.06,0,5.546,2.486,5.546,5.546
		s-2.486,5.546-5.546,5.546c-3.061,0-5.547-2.486-5.547-5.546S49.725,338.243,52.785,338.243z"/>
	<path fill="#B90E67" d="M52.785,437.215c-6.12,0-10.997,4.972-10.997,10.996c0,6.12,4.973,10.997,10.997,10.997
		s10.996-4.973,10.996-10.997S58.81,437.215,52.785,437.215z M52.785,453.758c-3.061,0-5.547-2.486-5.547-5.547
		c0-3.06,2.486-5.546,5.547-5.546c3.06,0,5.546,2.486,5.546,5.546C58.236,451.271,55.845,453.758,52.785,453.758z"/>
	<path fill="#B90E67" d="M157.303,437.215c-6.12,0-10.997,4.972-10.997,10.996c0,6.12,4.973,10.997,10.997,10.997
		s10.997-4.877,10.997-10.997C168.3,442.187,163.327,437.215,157.303,437.215z M157.303,453.758c-3.06,0-5.546-2.486-5.546-5.547
		c0-3.06,2.486-5.546,5.546-5.546c3.061,0,5.547,2.486,5.547,5.546C162.754,451.271,160.364,453.758,157.303,453.758z"/>
	<g>
		<g>
			<path fill="none" d="M102.414,383.76h3.251v3.251h-3.251V383.76z"/>
			<path fill="none" d="M108.917,383.76h3.251v3.251h-3.251V383.76z"/>
			<path fill="#B90E67" d="M128.52,408.24h-9.275l-5.45-4.112v-4.494c2.581-1.817,4.303-4.59,4.781-7.746h1.721
				c1.817,0,3.251-1.435,3.251-3.251v-1.625c0-1.817-1.434-3.251-3.251-3.251h-1.626v-0.478c3.061-2.104,4.877-5.642,4.877-9.371
				v-6.502c0-0.861-0.765-1.625-1.625-1.625h-19.604c-6.312,0-11.379,5.164-11.379,11.379v3.251c0,1.435,0.669,2.773,1.721,3.634
				c-1.052,0.574-1.721,1.625-1.721,2.869v1.625c0,1.817,1.434,3.251,3.251,3.251h1.722c0.478,3.156,2.199,5.928,4.781,7.746v4.495
				l-5.451,4.111h-9.18c-0.861,0-1.626,0.765-1.626,1.625v14.727c0,0.86,0.765,1.626,1.626,1.626h42.457
				c0.86,0,1.626-0.766,1.626-1.626V409.77C130.146,409.005,129.381,408.24,128.52,408.24z M120.392,387.011v1.625h-1.626v-1.625
				H120.392z M95.912,388.637h-1.626v-1.625h1.626V388.637z M96.773,379.074c-0.574,0.287-0.86,0.861-0.86,1.435v1.625
				c-0.861,0-1.626-0.765-1.626-1.625v-3.251c0-4.494,3.634-8.128,8.128-8.128h17.978v4.877c0,2.008-0.765,3.92-2.104,5.451
				c-0.191-0.191-0.479-0.383-0.766-0.479l-13.101-3.251c-0.382-0.096-0.765-0.096-1.147,0.096L96.773,379.074z M99.163,390.263
				v-8.798l5.068-2.582l11.188,2.773v8.511c0,4.494-3.634,8.128-8.128,8.128C102.797,398.486,99.163,394.757,99.163,390.263
				L99.163,390.263z M103.37,406.232c0.383-0.287,0.67-0.766,0.67-1.34v-3.729c2.104,0.669,4.398,0.669,6.502,0v3.729
				c0,0.479,0.287,0.957,0.67,1.34l4.494,3.441l-8.415,4.877l-8.415-4.877L103.37,406.232z M126.895,422.966H87.688v-11.379h7.746
				l11.093,6.312c0.478,0.287,1.147,0.287,1.625,0l11.093-6.312h7.745v11.379H126.895z"/>
		</g>
		<path fill="#B90E67" stroke="#B90E67" stroke-width="0.4119" stroke-miterlimit="10" d="M85.68,420.958H56.132v-5.354
			c0-4.112,3.347-7.459,7.459-7.459h1.243l1.912,9.754c0.096,0.479,0.573,0.86,1.052,0.86h10.614c0.479,0,0.956-0.382,1.052-0.86
			l1.913-9.754h1.243c2.008,0,3.824,0.765,5.163,2.104c0.67-0.383,1.339-0.67,2.104-0.86c-1.722-2.009-4.399-3.347-7.268-3.347
			h-1.817l-3.538-2.678v-1.435c3.538-1.53,5.929-4.877,6.312-8.702h0.096c1.721,0,3.155-1.435,3.155-3.156v-1.052
			c0-1.721-1.435-3.156-3.155-3.156v-0.287c2.008-1.339,3.155-3.634,3.155-6.12v-6.407c0-0.573-0.478-1.052-1.052-1.052H66.651
			c-4.112,0-7.459,3.347-7.459,7.459v3.155c0,1.435,0.67,2.678,1.817,3.539c-1.147,0.478-1.817,1.625-1.817,2.869v1.052
			c0,1.721,1.435,3.156,3.156,3.156h0.096c0.382,3.825,2.772,7.171,6.311,8.702v1.435l-3.538,2.678H63.4
			c-5.26,0-9.563,4.303-9.563,9.563v6.406c0,0.574,0.478,1.052,1.052,1.052h30.695C85.776,422.393,85.68,421.723,85.68,420.958z
			 M84.82,389.115v1.052c0,0.574-0.479,1.052-1.052,1.052v-3.156C84.341,388.063,84.82,388.541,84.82,389.115z M62.444,391.219
			c-0.574,0-1.053-0.478-1.053-1.052v-1.052c0-0.574,0.479-1.052,1.053-1.052V391.219z M62.444,383.855v0.765
			c-0.67-0.382-1.053-1.052-1.053-1.817v-3.156c0-2.964,2.391-5.355,5.355-5.355H84.82v5.355c0,1.339-0.479,2.582-1.339,3.538
			c-0.096-0.191-0.287-0.287-0.479-0.287l-6.024-1.625c-0.478-0.096-0.956,0.095-1.147,0.478c-0.286,0.478-0.669,0.956-1.147,1.339
			c-0.669,0.574-1.529,0.86-2.391,1.052c0.574-1.052,0.861-2.104,0.956-3.347c0.096-0.574-0.382-1.147-0.956-1.147h-0.096h-1.052
			c-0.191,0-0.287,0-0.382,0.096l-7.459,3.156C62.73,382.995,62.444,383.377,62.444,383.855z M64.643,392.271v-7.746l6.12-2.677
			c-0.096,0.478-0.287,0.86-0.574,1.243c-0.191,0.191-0.383,0.382-0.573,0.478c-0.574,0.287-0.861,0.956-0.766,1.625
			c0.191,0.478,0.574,0.765,1.052,0.861c2.104,0.382,4.208-0.191,5.929-1.435c0.479-0.382,0.861-0.765,1.243-1.243l4.495,1.243v7.65
			c0,4.686-3.825,8.511-8.511,8.511S64.643,397.052,64.643,392.271z M70.572,404.893c0.286-0.191,0.382-0.478,0.382-0.859v-1.34
			c1.435,0.287,2.869,0.287,4.208,0v1.244c0,0.286,0.191,0.669,0.383,0.859l2.964,2.2l-5.546,3.155l-5.547-3.155L70.572,404.893z
			 M72.579,412.352c0.287,0.191,0.765,0.191,1.052,0l5.451-3.06l-1.53,7.458h-8.894l-1.529-7.458L72.579,412.352z"/>
		<path fill="#B90E67" stroke="#B90E67" stroke-width="0.4238" stroke-miterlimit="10" d="M147.358,407.188h-1.625l-3.251-2.391
			v-1.338c3.251-1.435,5.45-4.398,5.737-7.937h0.096c1.625,0,2.868-1.339,2.868-2.869v-0.957c0-1.625-1.339-2.869-2.868-2.869
			v-0.287c1.816-1.243,2.868-3.347,2.868-5.546v-5.833c0-0.574-0.478-0.957-0.956-0.957h-17.499c-3.729,0-6.79,3.06-6.79,6.79v2.869
			c0,1.243,0.67,2.486,1.722,3.156c-1.052,0.478-1.722,1.53-1.722,2.677v0.957c0,1.625,1.339,2.869,2.869,2.869h0.096
			c0.383,3.443,2.582,6.502,5.737,7.937v1.338l-3.251,2.391h-1.626c-1.816,0-3.442,0.574-4.781,1.436
			c0.67,0.286,1.339,0.669,1.817,1.146c0.86-0.478,1.912-0.669,2.964-0.669h1.147l1.817,8.894c0.096,0.478,0.478,0.765,0.956,0.765
			h9.754c0.478,0,0.86-0.287,0.956-0.765l1.816-8.894h1.147c3.729,0,6.79,3.06,6.79,6.79v4.877h-25.437c0,0.286,0,0.573,0,0.86
			c0,0.382-0.096,0.669-0.096,1.052h26.584c0.573,0,0.956-0.479,0.956-0.956v-5.833C156.06,411.109,152.139,407.283,147.358,407.188
			z M149.271,391.697v0.957c0,0.574-0.479,0.956-0.956,0.956v-2.869C148.888,390.741,149.271,391.123,149.271,391.697z
			 M128.903,393.609c-0.574,0-0.956-0.478-0.956-0.956v-0.957c0-0.574,0.478-0.956,0.956-0.956V393.609z M128.903,386.82v0.669
			c-0.574-0.382-0.956-0.956-0.956-1.625v-2.869c0-2.678,2.199-4.877,4.877-4.877h16.543v4.877c0,1.147-0.479,2.295-1.243,3.251
			c-0.096-0.096-0.287-0.191-0.479-0.287l-5.45-1.53c-0.383-0.095-0.86,0.096-1.052,0.479c-0.287,0.478-0.67,0.86-1.052,1.243
			c-0.67,0.479-1.435,0.861-2.2,0.957c0.479-0.957,0.766-1.913,0.861-3.06c0-0.574-0.383-1.052-0.861-1.052h-0.096h-0.956
			c-0.096,0-0.287,0-0.382,0.096l-6.79,2.869C129.094,386.15,128.903,386.438,128.903,386.82z M130.815,394.661v-7.172l5.643-2.391
			c-0.096,0.383-0.287,0.765-0.479,1.147c-0.191,0.191-0.287,0.287-0.479,0.479c-0.573,0.287-0.765,0.86-0.669,1.53
			c0.191,0.382,0.479,0.765,0.956,0.861c1.913,0.382,3.921-0.096,5.451-1.339c0.478-0.287,0.86-0.669,1.147-1.147l4.111,1.147v6.98
			c0,4.304-3.442,7.745-7.745,7.745C134.448,402.502,130.815,398.869,130.815,394.661z M136.266,406.041
			c0.287-0.191,0.382-0.479,0.382-0.766v-1.147c1.243,0.287,2.582,0.287,3.921,0v1.147c0,0.287,0.191,0.574,0.383,0.766l2.678,2.008
			l-5.068,2.869l-5.068-2.869L136.266,406.041z M142.672,416.941h-8.128l-1.339-6.789l4.973,2.869c0.287,0.191,0.67,0.191,0.956,0
			l4.973-2.869L142.672,416.941z"/>
	</g>
	<path fill="#B90E67" d="M157.207,349.239c-2.964,0-5.45-2.486-5.45-5.451c0-3.06,2.486-5.546,5.546-5.546
		c2.869,0,5.164,2.199,5.451,4.972c1.529-1.243,3.155-2.391,4.877-3.251c-1.53-4.208-5.547-7.268-10.328-7.268
		c-6.12,0-10.997,4.973-10.997,10.997c0,5.068,3.442,9.275,8.033,10.614C155.104,352.491,156.06,350.865,157.207,349.239z"/>
	<path fill="#B90E67" d="M182.07,397.243c-0.096,0-0.096,0-0.19,0c-0.574,2.486-2.773,4.304-5.355,4.304
		c-3.06,0-5.546-2.486-5.546-5.547c0-0.287,0-0.574,0.096-0.861c-1.817-0.669-3.443-1.53-5.068-2.486
		c-0.383,1.052-0.574,2.199-0.574,3.347c0,6.12,4.877,10.997,10.997,10.997c5.833,0,10.614-4.591,10.997-10.327
		C185.703,397.052,183.983,397.243,182.07,397.243z"/>
	<g>
		<path fill="#6F6F6E" d="M158.642,366.93v-0.096c0-13.005,10.041-23.333,23.619-23.333c9.181,0,15.014,3.825,19.029,9.371
			l-9.371,7.268c-2.582-3.156-5.546-5.259-9.754-5.259c-6.311,0-10.71,5.355-10.71,11.857v0.096c0,6.694,4.399,11.953,10.71,11.953
			c4.686,0,7.459-2.2,10.137-5.451l9.371,6.694c-4.207,5.833-9.945,10.136-19.794,10.136
			C168.969,390.071,158.642,380.317,158.642,366.93z"/>
		<path fill="#6F6F6E" d="M203.777,366.93v-0.096c0-12.814,10.328-23.333,24.193-23.333s24.098,10.328,24.098,23.141v0.096
			c0,12.814-10.327,23.333-24.193,23.333C214.009,390.071,203.777,379.744,203.777,366.93z M239.35,366.93v-0.096
			c0-6.502-4.687-12.049-11.476-12.049s-11.283,5.546-11.283,11.953v0.096c0,6.502,4.686,12.049,11.475,12.049
			S239.35,373.337,239.35,366.93z"/>
		<path fill="#6F6F6E" d="M258.474,344.362h11.571l18.455,23.715v-23.715h12.24v44.753h-10.901l-19.125-24.576v24.576h-12.24
			V344.362z"/>
		<path fill="#6F6F6E" d="M305.809,382.517l6.885-8.224c4.398,3.538,9.371,5.355,14.535,5.355c3.347,0,5.163-1.147,5.163-3.06
			v-0.095c0-1.817-1.434-2.869-7.554-4.303c-9.563-2.199-16.926-4.877-16.926-14.057v-0.096c0-8.319,6.598-14.344,17.308-14.344
			c7.65,0,13.579,2.008,18.456,5.929l-6.216,8.797c-4.111-2.869-8.606-4.399-12.526-4.399c-2.965,0-4.495,1.243-4.495,2.869v0.096
			c0,2.008,1.53,2.964,7.746,4.303c10.327,2.199,16.734,5.546,16.734,13.961v0.096c0,9.18-7.268,14.63-18.073,14.63
			C318.814,389.976,311.259,387.394,305.809,382.517z"/>
		<path fill="#6F6F6E" d="M350.274,369.512v-25.149h12.623v24.863c0,6.502,3.251,9.563,8.224,9.563s8.224-2.964,8.224-9.18v-25.245
			h12.719v24.863c0,14.439-8.225,20.75-20.942,20.75C358.307,389.976,350.274,383.569,350.274,369.512z"/>
		<path fill="#6F6F6E" d="M400.191,344.362h12.431v33.947h21.707v10.901h-34.138V344.362z"/>
		<path fill="#6F6F6E" d="M443.891,355.264h-13.483v-10.901h39.303v10.901h-13.483v33.947h-12.432v-33.947H443.891z"/>
		<path fill="#6F6F6E" d="M484.531,344.076h11.953l19.029,45.135h-13.292l-3.251-8.032h-17.308l-3.156,8.032h-13.005
			L484.531,344.076z M495.433,371.52l-4.973-12.718l-5.068,12.718H495.433z"/>
		<path fill="#6F6F6E" d="M516.757,382.517l6.885-8.224c4.399,3.538,9.372,5.355,14.535,5.355c3.347,0,5.164-1.147,5.164-3.06
			v-0.095c0-1.817-1.435-2.869-7.555-4.303c-9.563-2.199-16.926-4.877-16.926-14.057v-0.096c0-8.319,6.599-14.344,17.309-14.344
			c7.65,0,13.579,2.008,18.456,5.929l-6.216,8.797c-4.112-2.869-8.606-4.399-12.527-4.399c-2.964,0-4.494,1.243-4.494,2.869v0.096
			c0,2.008,1.53,2.964,7.745,4.303c10.328,2.199,16.734,5.546,16.734,13.961v0.096c0,9.18-7.267,14.63-18.072,14.63
			C529.762,389.976,522.208,387.394,516.757,382.517z"/>
	</g>
</g>
</svg>
